<mxfile host="app.diagrams.net" modified="2023-10-17T19:43:42.076Z" agent="Mozilla/5.0 (Windows NT 10.0; Win64; x64) AppleWebKit/537.36 (KHTML, like Gecko) Chrome/118.0.0.0 Safari/537.36" version="22.0.4" etag="cCuKW76OMbJf4IDCOIgj" type="github">
  <diagram name="PÃ¡gina-1" id="9alcYB1nHGEDjvQ7U3ge">
    <mxGraphModel>
      <root>
        <mxCell id="0" />
        <mxCell id="1" parent="0" />
      </root>
    </mxGraphModel>
  </diagram>
</mxfile>
